HIERARCHY
ROOT Hips
{
    OFFSET 0.000000 0.000000 0.000000
    CHANNELS 6 Xposition Yposition Zposition Zrotation Xrotation Yrotation
    JOINT Spine
    {
        OFFSET -0.000000 14.517291 0.000000
        CHANNELS 3 Zrotation Xrotation Yrotation
        JOINT Spine1
        {
            OFFSET -0.000000 37.558300 0.000000
            CHANNELS 3 Zrotation Xrotation Yrotation
            JOINT Neck
            {
                OFFSET -0.000000 37.404057 3.400369
                CHANNELS 3 Zrotation Xrotation Yrotation
                JOINT Head
                {
                    OFFSET -0.000000 24.785618 -3.540803
                    CHANNELS 3 Zrotation Xrotation Yrotation
                    End Site
                    {
                        OFFSET -0.000000 35.408028 0.000000
                    }
                }
            }
            JOINT LeftShoulder
            {
                OFFSET 6.992933 33.973492 -0.192664
                CHANNELS 3 Zrotation Xrotation Yrotation
                JOINT LeftArm
                {
                    OFFSET 21.527611 0.000000 0.000000
                    CHANNELS 3 Zrotation Xrotation Yrotation
                    JOINT LeftForeArm
                    {
                        OFFSET 56.353916 0.000000 0.000000
                        CHANNELS 3 Zrotation Xrotation Yrotation
                        JOINT LeftHand
                        {
                            OFFSET 47.774071 0.000000 0.000000
                            CHANNELS 3 Zrotation Xrotation Yrotation
                            End Site
                            {
                                OFFSET 26.556021 0.000000 0.000000
                            }
                        }
                    }
                }
            }
            JOINT RightShoulder
            {
                OFFSET -7.065357 33.973492 -0.192664
                CHANNELS 3 Zrotation Xrotation Yrotation
                JOINT RightArm
                {
                    OFFSET -21.527611 0.000000 0.000000
                    CHANNELS 3 Zrotation Xrotation Yrotation
                    JOINT RightForeArm
                    {
                        OFFSET -56.353916 0.000000 0.000000
                        CHANNELS 3 Zrotation Xrotation Yrotation
                        JOINT RightHand
                        {
                            OFFSET -47.774071 0.000000 0.000000
                            CHANNELS 3 Zrotation Xrotation Yrotation
                            End Site
                            {
                                OFFSET -26.556021 0.000000 0.000000
                            }
                        }
                    }
                }
            }
        }
    }
    JOINT LeftUpLeg
    {
        OFFSET 17.704014 0.000000 0.000000
        CHANNELS 3 Zrotation Xrotation Yrotation
        JOINT LeftLeg
        {
            OFFSET -0.000000 -81.181816 0.000000
            CHANNELS 3 Zrotation Xrotation Yrotation
            JOINT LeftFoot
            {
                OFFSET -0.000000 -62.821102 0.000000
                CHANNELS 3 Zrotation Xrotation Yrotation
                JOINT LeftToeBase
                {
                    OFFSET -0.000000 -11.507608 26.556021
                    CHANNELS 3 Zrotation Xrotation Yrotation
                    End Site
                    {
                        OFFSET -0.000000 0.000000 7.081605
                    }
                }
            }
        }
    }
    JOINT RightUpLeg
    {
        OFFSET -17.704014 0.000000 0.000000
        CHANNELS 3 Zrotation Xrotation Yrotation
        JOINT RightLeg
        {
            OFFSET -0.000000 -81.181816 0.000000
            CHANNELS 3 Zrotation Xrotation Yrotation
            JOINT RightFoot
            {
                OFFSET -0.000000 -62.821102 0.000000
                CHANNELS 3 Zrotation Xrotation Yrotation
                JOINT RightToeBase
                {
                    OFFSET -0.000000 -11.507608 26.556021
                    CHANNELS 3 Zrotation Xrotation Yrotation
                    End Site
                    {
                        OFFSET -0.000000 0.000000 7.081605
                    }
                }
            }
        }
    }
}
MOTION
Frames:    13
Frame Time:    0.008333
30.588564    147.267807    -49.451405    -0.605222    0.623857    36.465958    -1.117617    -2.017750    -3.190234    -10.082048    -1.694013    -1.206543    7.976046    8.253200    -7.019888    9.145164    -7.701452    -6.000659    9.007454    -3.114096    -12.673694    -26.211458    -28.003727    -36.279449    -14.357932    -36.491508    -97.977615    -34.833252    -39.177635    -40.476681    -10.964566    4.655690    -9.102927    22.580267    24.406155    6.824763    16.035961    16.971516    0.854625    -1.707831    16.481218    25.826126    20.614740    6.663217    0.359852    -7.989092    29.871199    -23.035583    -1.566778    -34.788822    34.570740    0.000000    0.000000    0.000000    -29.430017    -31.030046    -15.184519    15.382339    32.605000    -14.621372    3.116762    7.990531    -15.200372    0.000000    0.000000    0.000000    
30.489737    147.292114    -49.390877    -0.590306    0.622110    36.526939    -1.191392    -1.962945    -3.226174    -10.056734    -1.747947    -1.222669    8.018085    8.233520    -7.005250    9.085160    -7.718323    -6.001180    9.032549    -3.141391    -12.693278    -26.163826    -27.957928    -36.251301    -14.335149    -36.555164    -97.985390    -34.835167    -39.220158    -40.472942    -10.949251    4.640121    -9.112122    22.604040    24.391479    6.782937    16.071476    16.985231    0.835331    -1.710310    16.497198    25.798433    20.648941    6.681817    0.409419    -7.938297    29.770618    -23.063004    -1.694378    -34.714245    34.482880    0.000000    0.000000    0.000000    -29.417173    -31.025049    -15.205601    15.372770    32.671619    -14.630095    3.125658    7.937328    -15.217084    0.000000    0.000000    0.000000    
30.389542    147.312683    -49.325619    -0.581168    0.621162    36.599247    -1.255582    -1.912679    -3.269939    -10.050154    -1.805686    -1.242067    8.068522    8.214959    -6.990370    9.029845    -7.738475    -6.000806    9.072161    -3.155126    -12.708495    -26.135305    -27.957491    -36.245670    -14.291598    -36.564857    -97.961861    -34.509254    -39.322529    -40.345245    -10.913836    4.618586    -9.116643    22.619938    24.398575    6.733857    16.089983    16.981346    0.830738    -1.728632    16.490166    25.774195    20.690567    6.678083    0.455681    -7.889810    29.700338    -23.109715    -1.783689    -34.644249    34.423611    0.000000    0.000000    0.000000    -29.407087    -31.019981    -15.227351    15.374353    32.745213    -14.623361    3.128129    7.872221    -15.263621    0.000000    0.000000    0.000000    
30.278938    147.335297    -49.254108    -0.576355    0.606130    36.681458    -1.311523    -1.846555    -3.314109    -10.041969    -1.865551    -1.261840    8.133037    8.178947    -6.965539    8.932408    -7.750447    -6.001852    9.111110    -3.164422    -12.709461    -26.126669    -27.956423    -36.272881    -14.252222    -36.592155    -97.934814    -34.504391    -39.309525    -40.339706    -10.894558    4.612000    -9.133619    22.657103    24.422556    6.695060    16.079857    17.006807    0.821089    -1.715527    16.519867    25.778633    20.756727    6.669578    0.463104    -7.873442    29.641899    -23.104408    -1.872919    -34.557529    34.339760    0.000000    0.000000    0.000000    -29.379116    -31.001722    -15.247443    15.376766    32.812263    -14.618596    3.119993    7.813284    -15.317598    0.000000    0.000000    0.000000    
30.159876    147.350647    -49.189240    -0.574726    0.590268    36.762573    -1.366113    -1.760632    -3.353584    -10.041080    -1.954870    -1.282934    8.193946    8.164495    -6.951065    8.853662    -7.784099    -6.006328    9.158730    -3.190416    -12.737535    -26.113213    -27.948353    -36.262486    -14.228737    -36.610229    -97.929840    -34.514194    -39.304111    -40.328667    -10.867970    4.602790    -9.150340    22.692345    24.464025    6.651684    16.063839    17.007401    0.830100    -1.702960    16.522287    25.767204    20.823269    6.640460    0.498657    -7.835176    29.624763    -23.131329    -1.984796    -34.503235    34.265121    0.000000    0.000000    0.000000    -29.347454    -30.996637    -15.260502    15.379130    32.887138    -14.643956    3.113451    7.766746    -15.356035    0.000000    0.000000    0.000000    
30.029785    147.371628    -49.108574    -0.583615    0.550969    36.855106    -1.409260    -1.662815    -3.398848    -10.044585    -2.047348    -1.306392    8.248348    8.171347    -6.940644    8.803639    -7.839922    -6.005338    9.227745    -3.204906    -12.759939    -26.095308    -27.911636    -36.250668    -14.184483    -36.664577    -97.925102    -34.570740    -39.287754    -40.361904    -10.828441    4.588621    -9.173965    22.695002    24.440376    6.636663    16.124792    17.066288    0.790745    -1.738247    16.578112    25.792135    20.928574    6.580442    0.501469    -7.948006    29.653372    -22.942108    -1.978644    -34.384663    34.244171    0.000000    0.000000    0.000000    -29.281223    -30.975719    -15.262138    15.372814    32.957836    -14.669449    3.111187    7.734508    -15.410471    0.000000    0.000000    0.000000    
29.887230    147.390198    -49.016426    -0.613393    0.497011    36.962002    -1.455407    -1.577139    -3.449164    -10.017851    -2.119825    -1.329145    8.295062    8.139826    -6.921973    8.754352    -7.855357    -6.000963    9.289132    -3.227301    -12.792358    -26.073463    -27.877993    -36.233261    -14.176001    -36.714119    -97.946678    -34.608105    -39.306995    -40.411678    -10.797496    4.593936    -9.208907    22.707365    24.420738    6.632272    16.146229    17.101337    0.787566    -1.738676    16.613796    25.769331    21.076605    6.527073    0.486523    -7.953923    29.689436    -22.979153    -2.041356    -34.312691    34.198429    0.000000    0.000000    0.000000    -29.184948    -30.949144    -15.287318    15.354560    33.032825    -14.689024    3.085410    7.694068    -15.441265    0.000000    0.000000    0.000000    
29.740753    147.403122    -48.924339    -0.646080    0.432669    37.097134    -1.481175    -1.484371    -3.507850    -10.023026    -2.195265    -1.355747    8.353786    8.115942    -6.907729    8.705041    -7.879022    -6.000967    9.362481    -3.249181    -12.842291    -26.040594    -27.821125    -36.207218    -14.132320    -36.787498    -97.948135    -34.681591    -39.297501    -40.473492    -10.750459    4.588058    -9.238396    22.724871    24.413193    6.611295    16.178749    17.128700    0.759713    -1.754102    16.641068    25.794174    21.240330    6.446090    0.433066    -7.976706    29.764835    -23.017647    -2.083579    -34.259789    34.199749    0.000000    0.000000    0.000000    -29.092260    -30.900103    -15.327738    15.340563    33.106777    -14.685410    3.063200    7.645415    -15.506026    0.000000    0.000000    0.000000    
29.594963    147.414642    -48.822968    -0.688000    0.343144    37.226128    -1.501439    -1.398465    -3.559428    -10.003853    -2.248930    -1.377560    8.395731    8.079326    -6.894583    8.653738    -7.883804    -6.003673    9.422765    -3.252194    -12.888443    -25.953669    -27.697794    -36.165020    -14.051236    -36.951466    -97.961159    -34.721169    -39.358650    -40.520725    -10.726887    4.595764    -9.261936    22.746763    24.334480    6.612126    16.255320    17.152740    0.710677    -1.790785    16.664095    25.743500    21.436008    6.380468    0.376274    -8.007505    29.853081    -23.069366    -2.115968    -34.212070    34.189114    0.000000    0.000000    0.000000    -28.964754    -30.845953    -15.327631    15.332071    33.191277    -14.678622    3.062349    7.588513    -15.581779    0.000000    0.000000    0.000000    
29.455780    147.426498    -48.716129    -0.730192    0.246115    37.355568    -1.522263    -1.330582    -3.613069    -9.990517    -2.284037    -1.398408    8.441820    8.040430    -6.874666    8.608928    -7.876542    -5.999363    9.494308    -3.257421    -12.935108    -25.872896    -27.589151    -36.119492    -14.016319    -37.083450    -97.997726    -34.773766    -39.428940    -40.581203    -10.708042    4.589636    -9.260607    22.789099    24.301476    6.585703    16.285389    17.167620    0.691359    -1.771647    16.686184    25.711800    21.637033    6.322696    0.342246    -8.032071    29.946835    -23.141537    -2.146225    -34.171814    34.182259    0.000000    0.000000    0.000000    -28.833660    -30.777788    -15.302143    15.349961    33.256378    -14.692539    3.046626    7.538813    -15.673592    0.000000    0.000000    0.000000    
29.314852    147.438812    -48.625557    -0.789262    0.155201    37.484882    -1.542070    -1.272654    -3.654607    -9.964029    -2.328472    -1.415804    8.448541    7.989172    -6.864722    8.623270    -7.831766    -5.993764    9.556223    -3.244683    -12.992913    -25.762344    -27.431007    -36.070633    -13.932701    -37.271034    -98.015221    -34.854168    -39.493134    -40.649193    -10.692916    4.576376    -9.277884    22.811058    24.258003    6.580664    16.336485    17.188808    0.657839    -1.785098    16.709028    25.695198    21.838066    6.231014    0.361212    -8.042765    30.074493    -23.204638    -2.145891    -34.123974    34.147266    0.000000    0.000000    0.000000    -28.695715    -30.729382    -15.332683    15.319783    33.328388    -14.655825    3.031260    7.515768    -15.745633    0.000000    0.000000    0.000000    
29.174704    147.448151    -48.536415    -0.853556    0.069344    37.627834    -1.562796    -1.222469    -3.706096    -9.953241    -2.388291    -1.438138    8.514104    7.949290    -6.860247    8.572888    -7.782890    -6.011364    9.635008    -3.219264    -13.037566    -25.663488    -27.324001    -36.026474    -13.890113    -37.352123    -98.030975    -34.856888    -39.524395    -40.688614    -10.676688    4.582232    -9.276180    22.845745    24.195749    6.561347    16.381598    17.213387    0.650772    -1.748795    16.743437    25.622118    22.036116    6.115998    0.407157    -8.044025    30.236099    -23.303734    -2.082588    -34.075954    34.156605    0.000000    0.000000    0.000000    -28.571848    -30.679766    -15.343323    15.330377    33.388783    -14.644639    3.018951    7.492056    -15.863714    0.000000    0.000000    0.000000    
29.042826    147.467880    -48.436661    -0.926965    -0.032912    37.781845    -1.574490    -1.207960    -3.751856    -9.951946    -2.409040    -1.455176    8.593183    7.906175    -6.836370    8.516142    -7.721416    -6.012275    9.737760    -3.171359    -13.107890    -25.547260    -27.262001    -35.956921    -13.906197    -37.381405    -98.050491    -34.894848    -39.537491    -40.768318    -10.653280    4.584785    -9.284059    22.872091    24.135887    6.550859    16.417416    17.259163    0.642781    -1.755403    16.788582    25.636431    22.238962    5.994486    0.499013    -8.006902    30.423363    -23.436321    -2.025962    -34.028229    34.167065    0.000000    0.000000    0.000000    -28.426508    -30.601091    -15.344554    15.343295    33.418556    -14.628934    2.990513    7.487425    -15.982919    0.000000    0.000000    0.000000    
